<svg width="35" height="46" viewBox="0 0 35 46" fill="none" xmlns="http://www.w3.org/2000/svg">
<mask id="mask0_320_447" style="mask-type:luminance" maskUnits="userSpaceOnUse" x="0" y="0" width="35" height="46">
<path d="M0 0.157715H34.9587V45.1577H0V0.157715Z" fill="white"/>
</mask>
<g mask="url(#mask0_320_447)">
<path d="M23.1877 38.0393L19.2382 33.2704C20.1002 32.2128 24.3615 27.1476 25.0046 26.3321C28.191 22.309 28.9018 20.8117 28.9018 17.5518C28.9018 11.2702 23.7979 6.1604 17.5298 6.1604C11.252 6.1604 6.14034 11.2702 6.14034 17.5518C6.14034 21.1546 6.1326 22.5492 21.4774 40.2358C20.259 41.7176 18.9457 43.3408 17.5279 45.1073C3.59127 27.721 0.10083 25.5825 0.10083 17.5518C0.10083 7.94242 7.92043 0.124756 17.5279 0.124756C27.1295 0.124756 34.9414 7.94242 34.9414 17.5518C34.9414 22.6984 33.4944 25.4411 28.9173 31.1688C28.2471 32.0075 23.9974 37.0553 23.1877 38.0393Z" fill="#1570EF"/>
<path d="M24.747 17.5518C24.747 18.0263 24.7005 18.497 24.6075 18.9619C24.5165 19.4287 24.379 19.88 24.1969 20.3197C24.0148 20.7575 23.7921 21.1739 23.5286 21.5691C23.2652 21.9642 22.9669 22.3284 22.6299 22.6654C22.2948 23.0005 21.9306 23.3008 21.5355 23.5642C21.1403 23.8276 20.7239 24.0504 20.2861 24.2324C19.8484 24.4145 19.3971 24.552 18.9302 24.6431C18.4654 24.7361 17.9947 24.7825 17.5201 24.7825C17.0475 24.7825 16.5768 24.7361 16.1119 24.6431C15.6451 24.552 15.1938 24.4145 14.756 24.2324C14.3183 24.0504 13.9018 23.8276 13.5067 23.5642C13.1115 23.3008 12.7474 23.0005 12.4123 22.6654C12.0753 22.3284 11.777 21.9642 11.5135 21.5691C11.2501 21.1739 11.0273 20.7575 10.8453 20.3197C10.6632 19.88 10.5257 19.4287 10.4346 18.9619C10.3417 18.497 10.2952 18.0263 10.2952 17.5518C10.2952 17.0772 10.3417 16.6065 10.4346 16.1397C10.5257 15.6749 10.6632 15.2235 10.8453 14.7838C11.0273 14.3461 11.2501 13.9277 11.5135 13.5345C11.777 13.1393 12.0753 12.7732 12.4123 12.4382C12.7474 12.1011 13.1115 11.8028 13.5067 11.5394C13.9018 11.274 14.3183 11.0513 14.756 10.8711C15.1938 10.6891 15.6451 10.5515 16.1119 10.4586C16.5768 10.3656 17.0475 10.3191 17.5201 10.3191C17.9947 10.3191 18.4654 10.3656 18.9302 10.4586C19.3971 10.5515 19.8484 10.6891 20.2861 10.8711C20.7239 11.0513 21.1403 11.274 21.5355 11.5394C21.9306 11.8028 22.2948 12.1011 22.6299 12.4382C22.9669 12.7732 23.2652 13.1393 23.5286 13.5345C23.7921 13.9277 24.0148 14.3461 24.1969 14.7838C24.379 15.2235 24.5165 15.6749 24.6075 16.1397C24.7005 16.6065 24.747 17.0772 24.747 17.5518Z" fill="#1570EF"/>
</g>
</svg>
