<svg width="36" height="36" viewBox="0 0 36 36" fill="none" xmlns="http://www.w3.org/2000/svg">
<path d="M18 3.24327C22.806 3.24327 23.3751 3.26127 25.2737 3.34784C26.4152 3.36181 27.5459 3.57141 28.6166 3.96753C29.393 4.26695 30.0981 4.72563 30.6866 5.31403C31.275 5.90244 31.7337 6.60754 32.0331 7.38393C32.4293 8.45455 32.6389 9.58517 32.6529 10.7266C32.7386 12.6251 32.7574 13.1942 32.7574 18C32.7574 22.8058 32.7394 23.3749 32.6529 25.2734C32.6389 26.4148 32.4293 27.5454 32.0331 28.6161C31.7337 29.3925 31.275 30.0976 30.6866 30.686C30.0981 31.2744 29.393 31.7331 28.6166 32.0325C27.5459 32.4286 26.4152 32.6382 25.2737 32.6522C23.376 32.7379 22.8069 32.7567 18 32.7567C13.1931 32.7567 12.624 32.7387 10.7263 32.6522C9.58477 32.6382 8.4541 32.4286 7.38343 32.0325C6.60699 31.7331 5.90186 31.2744 5.31343 30.686C4.72499 30.0976 4.26629 29.3925 3.96686 28.6161C3.57072 27.5454 3.36111 26.4148 3.34714 25.2734C3.26143 23.3749 3.24257 22.8058 3.24257 18C3.24257 13.1942 3.26057 12.6251 3.34714 10.7266C3.36111 9.58517 3.57072 8.45455 3.96686 7.38393C4.26629 6.60754 4.72499 5.90244 5.31343 5.31403C5.90186 4.72563 6.60699 4.26695 7.38343 3.96753C8.4541 3.57141 9.58477 3.36181 10.7263 3.34784C12.6249 3.26213 13.194 3.24327 18 3.24327ZM18 0C13.1143 0 12.4989 0.0205704 10.5789 0.107995C9.0849 0.137709 7.6068 0.420563 6.20743 0.944527C5.007 1.39679 3.91971 2.10553 3.02143 3.02128C2.1048 3.91985 1.39542 5.0077 0.942857 6.20885C0.418869 7.60815 0.136001 9.08618 0.106286 10.5801C0.0205715 12.4983 0 13.1137 0 17.9991C0 22.8846 0.0205714 23.5 0.108 25.4199C0.137715 26.9138 0.420583 28.3918 0.944572 29.7912C1.39664 30.9921 2.10542 32.08 3.02143 32.9787C3.9202 33.8947 5.0081 34.6034 6.20914 35.0555C7.60851 35.5794 9.08661 35.8623 10.5806 35.892C12.5006 35.9777 13.1134 36 18.0017 36C22.89 36 23.5029 35.9794 25.4229 35.892C26.9168 35.8623 28.3949 35.5794 29.7943 35.0555C30.9896 34.5922 32.0751 33.8845 32.9814 32.9777C33.8876 32.0709 34.5946 30.985 35.0571 29.7894C35.5811 28.3901 35.864 26.9121 35.8937 25.4182C35.9794 23.5 36 22.8846 36 17.9991C36 13.1137 35.9794 12.4983 35.892 10.5784C35.8623 9.08447 35.5794 7.60643 35.0554 6.20713C34.6034 5.00614 33.8946 3.9183 32.9786 3.01957C32.0798 2.1036 30.9919 1.39485 29.7909 0.942812C28.3915 0.418849 26.9134 0.135995 25.4194 0.106281C23.5011 0.0205705 22.8857 0 18 0Z" fill="#090914"/>
<path d="M18.0037 8.76001C16.1755 8.76001 14.3884 9.3021 12.8683 10.3177C11.3482 11.3334 10.1635 12.7769 9.46387 14.4659C8.76426 16.1548 8.58121 18.0133 8.93787 19.8062C9.29453 21.5992 10.1749 23.2461 11.4676 24.5388C12.7603 25.8314 14.4073 26.7117 16.2004 27.0684C17.9934 27.425 19.852 27.242 21.541 26.5424C23.23 25.8428 24.6736 24.6581 25.6893 23.1381C26.705 21.6181 27.2471 19.8311 27.2471 18.003C27.2471 15.5516 26.2733 13.2006 24.5398 11.4672C22.8063 9.73382 20.4552 8.76001 18.0037 8.76001ZM18.0037 24.0027C16.817 24.0027 15.657 23.6508 14.6703 22.9916C13.6836 22.3323 12.9145 21.3953 12.4604 20.299C12.0063 19.2027 11.8875 17.9963 12.119 16.8325C12.3505 15.6687 12.9219 14.5996 13.761 13.7606C14.6002 12.9215 15.6693 12.3501 16.8331 12.1186C17.997 11.8871 19.2034 12.0059 20.2998 12.46C21.3961 12.9141 22.3332 13.6831 22.9925 14.6697C23.6518 15.6564 24.0037 16.8164 24.0037 18.003C24.0037 19.5942 23.3715 21.1203 22.2463 22.2454C21.1211 23.3706 19.595 24.0027 18.0037 24.0027Z" fill="#090914"/>
<path d="M27.6102 10.5522C28.8031 10.5522 29.7702 9.5852 29.7702 8.39232C29.7702 7.19944 28.8031 6.23242 27.6102 6.23242C26.4173 6.23242 25.4502 7.19944 25.4502 8.39232C25.4502 9.5852 26.4173 10.5522 27.6102 10.5522Z" fill="#090914"/>
</svg>
