<svg width="209" height="48" viewBox="0 0 209 48" fill="none" xmlns="http://www.w3.org/2000/svg">
<g id="Frame 4">
<g id="Frame 2">
<g id="Clip path group">
<mask id="mask0_244_768" style="mask-type:luminance" maskUnits="userSpaceOnUse" x="0" y="1" width="35" height="46">
<g id="0f6ec7857f">
<path id="Vector" d="M0 1.15784H34.9587V46.1578H0V1.15784Z" fill="white"/>
</g>
</mask>
<g mask="url(#mask0_244_768)">
<g id="Group">
<path id="Vector_2" d="M23.1877 39.0394L19.2382 34.2705C20.1002 33.2129 24.3615 28.1477 25.0046 27.3323C28.191 23.3091 28.9018 21.8119 28.9018 18.5519C28.9018 12.2703 23.7979 7.16052 17.5298 7.16052C11.252 7.16052 6.14034 12.2703 6.14034 18.5519C6.14034 22.1547 6.1326 23.5493 21.4774 41.2359C20.259 42.7177 18.9457 44.3409 17.5279 46.1074C3.59127 28.7211 0.10083 26.5827 0.10083 18.5519C0.10083 8.94254 7.92043 1.12488 17.5279 1.12488C27.1295 1.12488 34.9414 8.94254 34.9414 18.5519C34.9414 23.6985 33.4944 26.4413 28.9173 32.1689C28.2471 33.0076 23.9974 38.0554 23.1877 39.0394Z" fill="#1570EF"/>
</g>
<path id="Vector_3" d="M24.747 18.5519C24.747 19.0265 24.7005 19.4972 24.6075 19.962C24.5165 20.4288 24.379 20.8802 24.1969 21.3199C24.0148 21.7576 23.7921 22.1741 23.5286 22.5692C23.2652 22.9644 22.9669 23.3285 22.6299 23.6655C22.2948 24.0006 21.9306 24.3009 21.5355 24.5643C21.1403 24.8277 20.7239 25.0505 20.2861 25.2326C19.8484 25.4146 19.3971 25.5522 18.9302 25.6432C18.4654 25.7362 17.9947 25.7827 17.5201 25.7827C17.0475 25.7827 16.5768 25.7362 16.1119 25.6432C15.6451 25.5522 15.1938 25.4146 14.756 25.2326C14.3183 25.0505 13.9018 24.8277 13.5067 24.5643C13.1115 24.3009 12.7474 24.0006 12.4123 23.6655C12.0753 23.3285 11.777 22.9644 11.5135 22.5692C11.2501 22.1741 11.0273 21.7576 10.8453 21.3199C10.6632 20.8802 10.5257 20.4288 10.4346 19.962C10.3417 19.4972 10.2952 19.0265 10.2952 18.5519C10.2952 18.0773 10.3417 17.6067 10.4346 17.1398C10.5257 16.675 10.6632 16.2237 10.8453 15.784C11.0273 15.3462 11.2501 14.9278 11.5135 14.5346C11.777 14.1395 12.0753 13.7734 12.4123 13.4383C12.7474 13.1012 13.1115 12.8029 13.5067 12.5395C13.9018 12.2741 14.3183 12.0514 14.756 11.8713C15.1938 11.6892 15.6451 11.5517 16.1119 11.4587C16.5768 11.3657 17.0475 11.3192 17.5201 11.3192C17.9947 11.3192 18.4654 11.3657 18.9302 11.4587C19.3971 11.5517 19.8484 11.6892 20.2861 11.8713C20.7239 12.0514 21.1403 12.2741 21.5355 12.5395C21.9306 12.8029 22.2948 13.1012 22.6299 13.4383C22.9669 13.7734 23.2652 14.1395 23.5286 14.5346C23.7921 14.9278 24.0148 15.3462 24.1969 15.784C24.379 16.2237 24.5165 16.675 24.6075 17.1398C24.7005 17.6067 24.747 18.0773 24.747 18.5519Z" fill="#1570EF"/>
</g>
</g>
</g>
<g id="Frame 3">
<g id="Typelogo">
<g id="Group_2">
<g id="Group_3">
<g id="Group_4">
<path id="Vector_4" d="M77.0606 36.8495L72.9415 22.4004L68.8225 36.8495H62.2971L54.9587 11.0947H61.4841L65.885 28.7632H66.0368L70.7194 11.0947H75.1528L79.8355 28.7632H79.9981L84.3989 11.0947H90.8918L83.5535 36.8495H77.0606Z" fill="#333333"/>
</g>
</g>
</g>
<g id="Group_5">
<g id="Group_6">
<g id="Group_7">
<path id="Vector_5" d="M89.881 11.9077C90.5314 11.2655 91.3037 10.943 92.2006 10.943C93.0949 10.943 93.8645 11.2655 94.5095 11.9077C95.1517 12.5527 95.4742 13.3223 95.4742 14.2165C95.4742 15.1135 95.1517 15.8831 94.5095 16.5254C93.8645 17.1703 93.0949 17.4901 92.2006 17.4901C91.3037 17.4901 90.5314 17.1703 89.881 16.5254C89.236 15.8831 88.9163 15.1135 88.9163 14.2165C88.9163 13.3223 89.236 12.5527 89.881 11.9077ZM89.3607 20.8395V36.8495H94.8888V20.8395H89.3607Z" fill="#333333"/>
</g>
</g>
</g>
<g id="Group_8">
<g id="Group_9">
<g id="Group_10">
<path id="Vector_6" d="M95.8542 36.8496V20.8396H101.382V23.1484H101.437C101.48 23.0617 101.548 22.9587 101.643 22.8341C101.735 22.7121 101.938 22.4954 102.25 22.1837C102.559 21.8667 102.892 21.5848 103.247 21.3382C103.599 21.0862 104.06 20.8613 104.623 20.6662C105.187 20.4656 105.756 20.3627 106.336 20.3627C106.943 20.3627 107.534 20.4467 108.114 20.612C108.699 20.78 109.127 20.9453 109.404 21.1106L109.837 21.3707L107.528 26.0534C106.84 25.4681 105.884 25.1754 104.656 25.1754C103.989 25.1754 103.415 25.3245 102.932 25.6199C102.456 25.9098 102.12 26.2648 101.924 26.6821C101.729 27.094 101.588 27.4463 101.502 27.7336C101.42 28.0235 101.382 28.2512 101.382 28.4165V36.8496H95.8542Z" fill="#333333"/>
</g>
</g>
</g>
<g id="Group_11">
<g id="Group_12">
<g id="Group_13">
<path id="Vector_7" d="M115.425 20.3627C116.341 20.3627 117.246 20.4684 118.135 20.677C119.029 20.8884 119.699 21.0971 120.14 21.3057L120.791 21.6201L118.981 25.2405C117.737 24.5684 116.553 24.2324 115.425 24.2324C114.802 24.2324 114.363 24.3028 114.103 24.4383C113.843 24.5765 113.713 24.834 113.713 25.2079C113.713 25.2892 113.718 25.3705 113.734 25.4573C113.756 25.5386 113.799 25.6144 113.864 25.6849C113.929 25.7581 113.986 25.8231 114.038 25.88C114.087 25.9315 114.173 25.9884 114.298 26.0534C114.428 26.113 114.528 26.1591 114.601 26.1943C114.672 26.2242 114.791 26.2702 114.959 26.3353C115.124 26.3949 115.246 26.4409 115.328 26.4762C115.414 26.506 115.555 26.5521 115.75 26.6171C115.951 26.6767 116.103 26.7146 116.206 26.7363C116.848 26.926 117.409 27.1347 117.886 27.365C118.368 27.5899 118.875 27.9016 119.403 28.2972C119.937 28.6956 120.349 29.1969 120.639 29.8039C120.926 30.4055 121.073 31.0884 121.073 31.8526C121.073 35.4947 118.542 37.3157 113.485 37.3157C112.341 37.3157 111.255 37.1369 110.222 36.7846C109.195 36.4323 108.455 36.0773 108 35.7223L107.306 35.1587L109.561 31.3865C109.726 31.5328 109.943 31.7063 110.211 31.9068C110.485 32.1019 110.973 32.3729 111.675 32.7198C112.382 33.0612 112.997 33.2292 113.517 33.2292C114.666 33.2292 115.241 32.8444 115.241 32.0694C115.241 31.7171 115.092 31.4407 114.797 31.2456C114.507 31.0505 114.011 30.831 113.312 30.5844C112.618 30.3323 112.07 30.102 111.675 29.8906C110.677 29.3703 109.886 28.7823 109.301 28.1238C108.721 27.468 108.434 26.6008 108.434 25.5223C108.434 23.8964 109.062 22.6336 110.32 21.7285C111.577 20.8179 113.279 20.3627 115.425 20.3627Z" fill="#333333"/>
</g>
</g>
</g>
<g id="Group_14">
<g id="Group_15">
<g id="Group_16">
<path id="Vector_8" d="M119.265 16.2435V11.0947H137.367V16.2435H131.253V36.8495H125.389V16.2435H119.265Z" fill="#333333"/>
</g>
</g>
</g>
<g id="Group_17">
<g id="Group_18">
<g id="Group_19">
<path id="Vector_9" d="M136.562 36.8496V20.8396H142.09V23.1484H142.145C142.188 23.0617 142.256 22.9587 142.351 22.8341C142.443 22.7121 142.646 22.4954 142.958 22.1837C143.267 21.8667 143.6 21.5848 143.955 21.3382C144.307 21.0862 144.768 20.8613 145.331 20.6662C145.895 20.4656 146.464 20.3627 147.044 20.3627C147.651 20.3627 148.242 20.4467 148.822 20.612C149.407 20.78 149.835 20.9453 150.112 21.1106L150.545 21.3707L148.236 26.0534C147.548 25.4681 146.592 25.1754 145.364 25.1754C144.697 25.1754 144.123 25.3245 143.64 25.6199C143.164 25.9098 142.828 26.2648 142.632 26.6821C142.437 27.094 142.296 27.4463 142.21 27.7336C142.128 28.0235 142.09 28.2512 142.09 28.4165V36.8496H136.562Z" fill="#333333"/>
</g>
</g>
</g>
<g id="Group_20">
<g id="Group_21">
<g id="Group_22">
<path id="Vector_10" d="M150.258 34.866C148.762 33.2346 148.014 31.232 148.014 28.8609C148.014 26.4843 148.762 24.4763 150.258 22.8341C151.759 21.1865 153.667 20.3627 155.981 20.3627C158.098 20.3627 159.843 21.032 161.217 22.368V20.8396H166.745V36.8496H161.282V35.0394H161.217C159.843 36.557 158.098 37.3157 155.981 37.3157C153.667 37.3157 151.759 36.5 150.258 34.866ZM154.963 26.1401C154.247 26.8501 153.889 27.7552 153.889 28.8609C153.889 29.9611 154.231 30.8608 154.919 31.5599C155.605 32.2537 156.507 32.6005 157.629 32.6005C158.713 32.6005 159.602 32.2482 160.296 31.5382C160.995 30.831 161.347 29.9394 161.347 28.8609C161.347 27.7552 160.984 26.8501 160.263 26.1401C159.548 25.4329 158.67 25.0779 157.629 25.0779C156.567 25.0779 155.678 25.4329 154.963 26.1401Z" fill="#333333"/>
</g>
</g>
</g>
<g id="Group_23">
<g id="Group_24">
<g id="Group_25">
<path id="Vector_11" d="M176.081 24.8936C175.041 24.8936 174.144 25.2811 173.393 26.0534C172.648 26.8203 172.277 27.7444 172.277 28.8284C172.277 29.9286 172.648 30.8635 173.393 31.6358C174.144 32.4108 175.041 32.7956 176.081 32.7956C176.58 32.7956 177.051 32.736 177.501 32.6114C177.948 32.4813 178.276 32.3566 178.488 32.232L178.77 32.0369L180.645 35.8849C180.493 35.9879 180.287 36.1179 180.027 36.2751C179.767 36.4269 179.173 36.6382 178.249 36.9038C177.322 37.1775 176.331 37.3157 175.268 37.3157C172.919 37.3157 170.851 36.4892 169.068 34.8335C167.29 33.1804 166.402 31.1995 166.402 28.8934C166.402 26.5602 167.29 24.5549 169.068 22.8774C170.851 21.2027 172.919 20.3627 175.268 20.3627C176.331 20.3627 177.309 20.49 178.206 20.7421C179.1 20.9887 179.737 21.238 180.114 21.49L180.645 21.8694L178.77 25.6415C178.081 25.1429 177.187 24.8936 176.081 24.8936Z" fill="#333333"/>
</g>
</g>
</g>
<g id="Group_26">
<g id="Group_27">
<g id="Group_28">
<path id="Vector_12" d="M198.241 20.8395L190.632 28.4814L199 36.8496H191.879L185.483 30.4542V36.8496H179.955V10H185.483V26.4219L191.066 20.8395H198.241Z" fill="#333333"/>
</g>
</g>
</g>
</g>
</g>
</g>
</svg>
