<svg width="36" height="35" viewBox="0 0 36 35" fill="none" xmlns="http://www.w3.org/2000/svg">
<path d="M1.26393 34.5289C0.929122 34.5289 0.611006 34.4004 0.376642 34.1757C0.0585758 33.8707 -0.0752632 33.4212 0.041919 33.0039L2.15121 25.4432C0.745029 22.939 0.00840489 20.1137 0.00840489 17.2564C0.00840489 7.7373 8.07723 0 18.0042 0C27.9312 0 36 7.7373 36 17.2564C36 26.7755 27.9312 34.5128 18.0042 34.5128C14.9742 34.5128 12.0113 33.7905 9.36629 32.4099L1.59875 34.4807C1.48157 34.5128 1.38111 34.5289 1.26393 34.5289ZM9.53364 29.9218C9.75126 29.9218 9.96891 29.9862 10.1698 30.0825C12.5302 31.4148 15.242 32.121 18.0042 32.121C26.5417 32.121 33.489 25.4592 33.489 17.2724C33.489 9.08573 26.5417 2.42394 18.0042 2.42394C9.46668 2.42394 2.51945 9.08573 2.51945 17.2724C2.51945 19.889 3.23927 22.4413 4.59523 24.6887C4.76264 24.9616 4.81289 25.2987 4.72919 25.6037L3.05516 31.6073L9.21558 29.97C9.31602 29.9379 9.4332 29.9218 9.53364 29.9218Z" fill="black"/>
<path d="M22.591 26.5182C21.5531 26.5182 20.4817 26.2934 19.3601 25.8279C18.3055 25.3945 17.2509 24.8166 16.2297 24.0942C15.2253 23.3879 14.2377 22.5853 13.3338 21.7185C12.4298 20.8356 11.5927 19.9045 10.8561 18.9414C10.1028 17.9301 9.50014 16.9348 9.06489 15.9556C8.59616 14.8962 8.36182 13.8528 8.36182 12.8575C8.36182 12.1512 8.49571 11.477 8.74681 10.8509C9.01465 10.1928 9.44992 9.59883 10.0191 9.08515C11.0905 8.07384 12.6306 7.70467 13.8527 8.2665C14.2712 8.44308 14.6227 8.73202 14.8907 9.11728L16.8324 11.7338C17.0332 11.9907 17.1841 12.2635 17.3013 12.5364C17.4352 12.8575 17.5189 13.1786 17.5189 13.4836C17.5189 13.9009 17.4015 14.3183 17.1672 14.6875C17.0165 14.9283 16.7989 15.2172 16.5143 15.4901L16.2967 15.7148C16.3971 15.8433 16.5143 16.0038 16.6984 16.1964C17.05 16.5817 17.435 16.999 17.8535 17.4004C18.272 17.7856 18.6905 18.1709 19.109 18.508C19.3099 18.6685 19.4775 18.7969 19.6114 18.8772L19.8456 18.6525C20.1469 18.3635 20.4484 18.1388 20.7498 17.9943C21.3022 17.6572 22.1558 17.5769 22.9091 17.8819C23.1769 17.9782 23.4448 18.1227 23.7294 18.3154L26.5252 20.2095C26.9102 20.4664 27.2114 20.8195 27.4122 21.2209C27.5796 21.6222 27.6468 21.9753 27.6468 22.3445C27.6468 22.8261 27.5294 23.2916 27.3118 23.7411C27.0942 24.1585 26.8431 24.5277 26.5417 24.8648C26.0061 25.4266 25.3868 25.844 24.7172 26.1169C24.0476 26.3898 23.3276 26.5182 22.591 26.5182ZM12.6306 10.4336C12.5301 10.4336 12.1954 10.4336 11.7769 10.8349C11.4588 11.1238 11.2412 11.4288 11.0905 11.7659C10.9398 12.103 10.8729 12.4883 10.8729 12.8736C10.8729 13.5478 11.0402 14.2701 11.3751 15.0406C11.7266 15.8433 12.2456 16.694 12.8817 17.5448C13.5346 18.3956 14.2712 19.2464 15.0915 20.033C15.9118 20.8035 16.7821 21.5258 17.6861 22.1679C18.5566 22.7779 19.444 23.2595 20.3313 23.6287C21.6035 24.1585 22.7752 24.2869 23.7294 23.9016C24.0642 23.7732 24.3655 23.5485 24.6668 23.2595C24.8175 23.099 24.9348 22.9385 25.0353 22.7298C25.0855 22.6174 25.1188 22.489 25.1188 22.3766C25.1188 22.3445 25.1188 22.2964 25.0686 22.2001L22.273 20.338C22.1558 20.2577 22.0386 20.1935 21.9382 20.1614C21.8712 20.1935 21.7709 20.2416 21.5868 20.4182L20.9506 21.0282C20.4652 21.4937 19.6951 21.6222 19.0757 21.4135L18.7744 21.2851C18.3894 21.0924 17.954 20.8035 17.4685 20.4022C16.9998 20.0169 16.5479 19.6156 16.0625 19.1661C15.5937 18.7006 15.1752 18.2672 14.7735 17.8177C14.3381 17.3201 14.0368 16.9188 13.8359 16.5817L13.6518 16.1643C13.6016 16.0038 13.5848 15.8272 13.5848 15.6667C13.5848 15.2172 13.7523 14.8159 14.0703 14.4949L14.7065 13.8688C14.8907 13.6922 14.9576 13.5959 14.9911 13.5317C14.9409 13.4194 14.8739 13.323 14.7902 13.2107L12.8315 10.562L12.6306 10.4336Z" fill="black"/>
</svg>
